<svg width="1552" height="33" viewBox="0 0 1552 33" fill="none" xmlns="http://www.w3.org/2000/svg">
<path d="M0.32 32V30.4C1.22667 30.3733 1.94667 30.2933 2.48 30.16C3.04 30.0267 3.46667 29.8 3.76 29.48C4.08 29.16 4.29333 28.7067 4.4 28.12C4.50667 27.5333 4.56 26.7733 4.56 25.84V7.36C4.56 6.42667 4.52 5.68 4.44 5.12C4.36 4.53333 4.18667 4.08 3.92 3.76C3.68 3.41333 3.33333 3.18666 2.88 3.08C2.45333 2.94666 1.88 2.85333 1.16 2.8V1.2H14C18.0267 1.2 21.12 1.85333 23.28 3.16C25.4667 4.44 26.56 6.28 26.56 8.68C26.56 11.8533 24.28 14.0933 19.72 15.4V15.56C21.1867 15.56 22.5067 15.7733 23.68 16.2C24.88 16.6 25.8933 17.1733 26.72 17.92C27.5467 18.6667 28.1867 19.5467 28.64 20.56C29.0933 21.5733 29.32 22.68 29.32 23.88C29.32 25.24 28.9867 26.4267 28.32 27.44C27.68 28.4533 26.7467 29.3067 25.52 30C23.1467 31.3333 19.88 32 15.72 32H0.32ZM16 29.56C20.2933 29.56 22.44 27.6267 22.44 23.76C22.44 21.3867 21.6667 19.6533 20.12 18.56C19.32 18 18.28 17.6 17 17.36C15.7467 17.12 14.2 17 12.36 17H10.44V25C10.44 26.6533 10.8667 27.8267 11.72 28.52C12.5733 29.2133 14 29.56 16 29.56ZM12.8 14.6C14 14.6 15.04 14.4933 15.92 14.28C16.8 14.04 17.5467 13.7067 18.16 13.28C19.44 12.4 20.08 11.0267 20.08 9.16C20.08 7.21333 19.6 5.81333 18.64 4.96C17.68 4.08 16.1333 3.64 14 3.64H11.16C10.68 3.64 10.44 3.86666 10.44 4.32V14.6H12.8ZM60.4425 19.6C60.4425 21.8667 60.1892 23.8133 59.6825 25.44C59.2025 27.04 58.4425 28.36 57.4025 29.4C56.3625 30.44 55.0158 31.2 53.3625 31.68C51.7358 32.16 49.7758 32.4 47.4825 32.4C43.1892 32.4 40.0425 31.5067 38.0425 29.72C36.0692 27.9067 35.0825 25.0267 35.0825 21.08V10.12C35.0825 9.08 35.0692 8.21333 35.0425 7.52C35.0158 6.8 34.9758 6.2 34.9225 5.72C34.8692 5.24 34.7892 4.85333 34.6825 4.56C34.6025 4.24 34.4958 3.97333 34.3625 3.76C34.1225 3.38667 33.7758 3.13333 33.3225 3C32.8692 2.86667 32.1758 2.8 31.2425 2.8V1.2H45.6025V2.8C44.4825 2.8 43.6558 2.86667 43.1225 3C42.5892 3.10667 42.1758 3.33333 41.8825 3.68C41.6958 3.89333 41.5358 4.16 41.4025 4.48C41.2958 4.77333 41.2025 5.17333 41.1225 5.68C41.0692 6.16 41.0292 6.76 41.0025 7.48C40.9758 8.2 40.9625 9.08 40.9625 10.12V20.6C40.9625 23.64 41.6025 25.8933 42.8825 27.36C44.1892 28.8 46.1892 29.52 48.8825 29.52C54.3758 29.52 57.1225 26.4667 57.1225 20.36V11.12C57.1225 10 57.0958 9.04 57.0425 8.24C57.0158 7.44 56.9492 6.76 56.8425 6.2C56.7625 5.64 56.6425 5.17333 56.4825 4.8C56.3492 4.42667 56.1758 4.12 55.9625 3.88C55.5892 3.50667 55.1092 3.24 54.5225 3.08C53.9358 2.89333 53.1225 2.8 52.0825 2.8V1.2H65.0425V2.8C64.0558 2.8 63.2958 2.88 62.7625 3.04C62.2292 3.17333 61.8158 3.42666 61.5225 3.8C61.3092 4.04 61.1358 4.36 61.0025 4.76C60.8692 5.13333 60.7625 5.61333 60.6825 6.2C60.6025 6.76 60.5358 7.44 60.4825 8.24C60.4558 9.04 60.4425 10 60.4425 11.12V19.6ZM67.1178 21.8H68.6778C69.0511 24.3333 70.0645 26.3333 71.7178 27.8C73.3711 29.24 75.4111 29.96 77.8378 29.96C78.8245 29.96 79.7311 29.84 80.5578 29.6C81.3845 29.36 82.0911 29.0267 82.6778 28.6C83.2645 28.1467 83.7178 27.6267 84.0378 27.04C84.3578 26.4267 84.5178 25.7467 84.5178 25C84.5178 24.36 84.4111 23.8133 84.1978 23.36C84.0111 22.88 83.6378 22.4267 83.0778 22C82.5178 21.5467 81.7445 21.0933 80.7578 20.64C79.7978 20.1867 78.5445 19.6667 76.9978 19.08C73.8778 17.88 71.5711 16.4933 70.0778 14.92C68.5845 13.32 67.8378 11.44 67.8378 9.28C67.8378 8.02667 68.0778 6.88 68.5578 5.84C69.0378 4.8 69.7045 3.90667 70.5578 3.16C71.4378 2.41333 72.4778 1.84 73.6778 1.44C74.9045 1.01333 76.2511 0.799999 77.7178 0.799999C79.0778 0.799999 80.3578 1.01333 81.5578 1.44C82.7578 1.86667 83.9445 2.50667 85.1178 3.36L85.8378 1.36H86.7978L87.2378 10H85.6778C85.0378 7.81333 84.0378 6.14667 82.6778 5C81.3178 3.82667 79.7445 3.24 77.9578 3.24C76.3045 3.24 74.9578 3.65333 73.9178 4.48C72.9045 5.28 72.3978 6.32 72.3978 7.6C72.3978 8.16 72.4911 8.66667 72.6778 9.12C72.8645 9.54666 73.2111 9.96 73.7178 10.36C74.2245 10.76 74.9178 11.1733 75.7978 11.6C76.6778 12 77.8111 12.4533 79.1978 12.96C81.0645 13.68 82.6511 14.4133 83.9578 15.16C85.2911 15.88 86.3711 16.6667 87.1978 17.52C88.0511 18.3467 88.6778 19.2267 89.0778 20.16C89.4778 21.0933 89.6778 22.12 89.6778 23.24C89.6778 24.6 89.3845 25.84 88.7978 26.96C88.2111 28.08 87.3845 29.04 86.3178 29.84C85.2778 30.64 84.0245 31.2667 82.5578 31.72C81.1178 32.1733 79.5178 32.4 77.7578 32.4C76.1578 32.4 74.7178 32.1867 73.4378 31.76C72.1578 31.3067 70.8378 30.5867 69.4778 29.6L68.6778 32H67.7178L67.1178 21.8ZM106.801 32H92.5213V30.4C93.4279 30.3733 94.1479 30.2933 94.6813 30.16C95.2413 30 95.6679 29.72 95.9613 29.32C96.2546 28.92 96.4546 28.36 96.5613 27.64C96.6679 26.8933 96.7213 25.8933 96.7213 24.64V8.56C96.7213 7.44 96.6679 6.52 96.5613 5.8C96.4813 5.05333 96.3079 4.46667 96.0413 4.04C95.7746 3.61333 95.3879 3.32 94.8813 3.16C94.4013 2.97333 93.7479 2.85333 92.9213 2.8V1.2H106.401V2.8C105.575 2.85333 104.908 2.97333 104.401 3.16C103.921 3.32 103.548 3.61333 103.281 4.04C103.015 4.46667 102.828 5.05333 102.721 5.8C102.641 6.52 102.601 7.44 102.601 8.56V24.64C102.601 25.8933 102.641 26.8933 102.721 27.64C102.828 28.36 103.028 28.92 103.321 29.32C103.641 29.72 104.068 30 104.601 30.16C105.161 30.2933 105.895 30.3733 106.801 30.4V32ZM134.63 32.4L116.91 7.16H116.75V24.36C116.75 25.6933 116.79 26.7467 116.87 27.52C116.976 28.2933 117.176 28.8933 117.47 29.32C117.79 29.7467 118.216 30.0267 118.75 30.16C119.31 30.2933 120.03 30.3733 120.91 30.4V32H109.03V30.4C110.016 30.3733 110.803 30.2933 111.39 30.16C112.003 30 112.47 29.72 112.79 29.32C113.136 28.92 113.363 28.36 113.47 27.64C113.576 26.8933 113.63 25.8933 113.63 24.64V8.56C113.63 7.44 113.576 6.52 113.47 5.8C113.363 5.05333 113.163 4.46667 112.87 4.04C112.576 3.61333 112.15 3.32 111.59 3.16C111.056 2.97333 110.336 2.85333 109.43 2.8V1.2H120.59L136.71 24.32H136.87V8.84C136.87 7.53333 136.816 6.49333 136.71 5.72C136.63 4.92 136.43 4.30667 136.11 3.88C135.816 3.45333 135.39 3.17333 134.83 3.04C134.296 2.90667 133.59 2.82667 132.71 2.8V1.2H144.59V2.8C143.603 2.82667 142.803 2.92 142.19 3.08C141.603 3.21333 141.136 3.48 140.79 3.88C140.47 4.28 140.256 4.85333 140.15 5.6C140.043 6.34667 139.99 7.33333 139.99 8.56V32.4H134.63ZM156.527 14.96C158.234 14.96 159.607 14.9067 160.647 14.8C161.687 14.6933 162.487 14.48 163.047 14.16C163.634 13.8133 164.047 13.32 164.287 12.68C164.527 12.04 164.714 11.1733 164.847 10.08H166.327V21.8H164.847C164.687 20.7333 164.474 19.88 164.207 19.24C163.94 18.6 163.514 18.12 162.927 17.8C162.34 17.4533 161.54 17.24 160.527 17.16C159.54 17.0533 158.207 17 156.527 17V25.24C156.527 26.0933 156.634 26.8133 156.847 27.4C157.087 27.9867 157.474 28.4667 158.007 28.84C158.54 29.1867 159.247 29.44 160.127 29.6C161.007 29.7333 162.087 29.8 163.367 29.8C164.887 29.8 166.167 29.6933 167.207 29.48C168.274 29.2667 169.154 28.8933 169.847 28.36C170.54 27.8267 171.1 27.12 171.527 26.24C171.954 25.3333 172.314 24.2 172.607 22.84H174.207L173.567 32H146.447V30.4C147.327 30.3733 148.047 30.2933 148.607 30.16C149.167 30.0267 149.594 29.8 149.887 29.48C150.18 29.16 150.38 28.7067 150.487 28.12C150.594 27.5333 150.647 26.7733 150.647 25.84V7.36C150.647 6.42667 150.594 5.68 150.487 5.12C150.407 4.53333 150.234 4.08 149.967 3.76C149.7 3.41333 149.314 3.18666 148.807 3.08C148.327 2.94666 147.687 2.85333 146.887 2.8V1.2H172.167L172.447 9.04H170.727C170.567 7.92 170.314 7 169.967 6.28C169.62 5.53333 169.14 4.94667 168.527 4.52C167.914 4.06666 167.114 3.76 166.127 3.6C165.167 3.41333 163.98 3.32 162.567 3.32H158.047C157.354 3.32 156.927 3.41333 156.767 3.6C156.607 3.76 156.527 4.16 156.527 4.8V14.96ZM177.354 21.8H178.914C179.287 24.3333 180.3 26.3333 181.954 27.8C183.607 29.24 185.647 29.96 188.074 29.96C189.06 29.96 189.967 29.84 190.794 29.6C191.62 29.36 192.327 29.0267 192.914 28.6C193.5 28.1467 193.954 27.6267 194.274 27.04C194.594 26.4267 194.754 25.7467 194.754 25C194.754 24.36 194.647 23.8133 194.434 23.36C194.247 22.88 193.874 22.4267 193.314 22C192.754 21.5467 191.98 21.0933 190.994 20.64C190.034 20.1867 188.78 19.6667 187.234 19.08C184.114 17.88 181.807 16.4933 180.314 14.92C178.82 13.32 178.074 11.44 178.074 9.28C178.074 8.02667 178.314 6.88 178.794 5.84C179.274 4.8 179.94 3.90667 180.794 3.16C181.674 2.41333 182.714 1.84 183.914 1.44C185.14 1.01333 186.487 0.799999 187.954 0.799999C189.314 0.799999 190.594 1.01333 191.794 1.44C192.994 1.86667 194.18 2.50667 195.354 3.36L196.074 1.36H197.034L197.474 10H195.914C195.274 7.81333 194.274 6.14667 192.914 5C191.554 3.82667 189.98 3.24 188.194 3.24C186.54 3.24 185.194 3.65333 184.154 4.48C183.14 5.28 182.634 6.32 182.634 7.6C182.634 8.16 182.727 8.66667 182.914 9.12C183.1 9.54666 183.447 9.96 183.954 10.36C184.46 10.76 185.154 11.1733 186.034 11.6C186.914 12 188.047 12.4533 189.434 12.96C191.3 13.68 192.887 14.4133 194.194 15.16C195.527 15.88 196.607 16.6667 197.434 17.52C198.287 18.3467 198.914 19.2267 199.314 20.16C199.714 21.0933 199.914 22.12 199.914 23.24C199.914 24.6 199.62 25.84 199.034 26.96C198.447 28.08 197.62 29.04 196.554 29.84C195.514 30.64 194.26 31.2667 192.794 31.72C191.354 32.1733 189.754 32.4 187.994 32.4C186.394 32.4 184.954 32.1867 183.674 31.76C182.394 31.3067 181.074 30.5867 179.714 29.6L178.914 32H177.954L177.354 21.8ZM203.477 21.8H205.037C205.411 24.3333 206.424 26.3333 208.077 27.8C209.731 29.24 211.771 29.96 214.197 29.96C215.184 29.96 216.091 29.84 216.917 29.6C217.744 29.36 218.451 29.0267 219.037 28.6C219.624 28.1467 220.077 27.6267 220.397 27.04C220.717 26.4267 220.877 25.7467 220.877 25C220.877 24.36 220.771 23.8133 220.557 23.36C220.371 22.88 219.997 22.4267 219.437 22C218.877 21.5467 218.104 21.0933 217.117 20.64C216.157 20.1867 214.904 19.6667 213.357 19.08C210.237 17.88 207.931 16.4933 206.437 14.92C204.944 13.32 204.197 11.44 204.197 9.28C204.197 8.02667 204.437 6.88 204.917 5.84C205.397 4.8 206.064 3.90667 206.917 3.16C207.797 2.41333 208.837 1.84 210.037 1.44C211.264 1.01333 212.611 0.799999 214.077 0.799999C215.437 0.799999 216.717 1.01333 217.917 1.44C219.117 1.86667 220.304 2.50667 221.477 3.36L222.197 1.36H223.157L223.597 10H222.037C221.397 7.81333 220.397 6.14667 219.037 5C217.677 3.82667 216.104 3.24 214.317 3.24C212.664 3.24 211.317 3.65333 210.277 4.48C209.264 5.28 208.757 6.32 208.757 7.6C208.757 8.16 208.851 8.66667 209.037 9.12C209.224 9.54666 209.571 9.96 210.077 10.36C210.584 10.76 211.277 11.1733 212.157 11.6C213.037 12 214.171 12.4533 215.557 12.96C217.424 13.68 219.011 14.4133 220.317 15.16C221.651 15.88 222.731 16.6667 223.557 17.52C224.411 18.3467 225.037 19.2267 225.437 20.16C225.837 21.0933 226.037 22.12 226.037 23.24C226.037 24.6 225.744 25.84 225.157 26.96C224.571 28.08 223.744 29.04 222.677 29.84C221.637 30.64 220.384 31.2667 218.917 31.72C217.477 32.1733 215.877 32.4 214.117 32.4C212.517 32.4 211.077 32.1867 209.797 31.76C208.517 31.3067 207.197 30.5867 205.837 29.6L205.037 32H204.077L203.477 21.8ZM265.946 1.2H267.906L267.106 11.32H265.506C264.946 8.86667 263.852 6.93333 262.226 5.52C260.626 4.10666 258.679 3.4 256.386 3.4C254.812 3.4 253.412 3.72 252.186 4.36C250.959 4.97333 249.919 5.86667 249.066 7.04C248.239 8.18667 247.599 9.6 247.146 11.28C246.719 12.9333 246.506 14.8 246.506 16.88C246.506 21.0133 247.346 24.2 249.026 26.44C250.732 28.6533 253.239 29.76 256.546 29.76C259.212 29.76 261.412 29.04 263.146 27.6C264.906 26.16 266.159 24.0133 266.906 21.16H268.666V32H266.786L266.226 28.84C263.292 31.2133 259.732 32.4 255.546 32.4C253.119 32.4 250.919 32.04 248.946 31.32C246.972 30.6 245.292 29.5867 243.906 28.28C242.519 26.9467 241.439 25.3333 240.666 23.44C239.919 21.5467 239.546 19.44 239.546 17.12C239.546 14.6933 239.946 12.48 240.746 10.48C241.546 8.48 242.666 6.76 244.106 5.32C245.572 3.88 247.306 2.77333 249.306 2C251.332 1.2 253.572 0.799999 256.026 0.799999C257.652 0.799999 259.172 1.02667 260.586 1.48C261.999 1.93333 263.532 2.66667 265.186 3.68L265.946 1.2ZM289.075 0.799999C291.475 0.799999 293.715 1.21333 295.795 2.04C297.875 2.86667 299.675 4 301.195 5.44C302.742 6.88 303.955 8.57333 304.835 10.52C305.715 12.4667 306.155 14.5733 306.155 16.84C306.155 19 305.702 21.0267 304.795 22.92C303.915 24.8133 302.702 26.4667 301.155 27.88C299.635 29.2667 297.835 30.3733 295.755 31.2C293.675 32 291.449 32.4 289.075 32.4C286.702 32.4 284.475 32 282.395 31.2C280.315 30.3733 278.502 29.2667 276.955 27.88C275.409 26.4667 274.195 24.8133 273.315 22.92C272.435 21.0267 271.995 19 271.995 16.84C271.995 14.5733 272.435 12.4667 273.315 10.52C274.195 8.57333 275.395 6.88 276.915 5.44C278.462 4 280.275 2.86667 282.355 2.04C284.435 1.21333 286.675 0.799999 289.075 0.799999ZM289.075 29.8C290.622 29.8 292.022 29.5067 293.275 28.92C294.529 28.3067 295.595 27.4533 296.475 26.36C297.355 25.24 298.022 23.8933 298.475 22.32C298.955 20.72 299.195 18.9333 299.195 16.96C299.195 14.88 298.955 13.0133 298.475 11.36C298.022 9.68 297.355 8.25333 296.475 7.08C295.595 5.88 294.529 4.97333 293.275 4.36C292.022 3.72 290.622 3.4 289.075 3.4C287.502 3.4 286.089 3.72 284.835 4.36C283.609 4.97333 282.555 5.88 281.675 7.08C280.795 8.25333 280.115 9.68 279.635 11.36C279.182 13.0133 278.955 14.88 278.955 16.96C278.955 18.9333 279.182 20.72 279.635 22.32C280.115 23.8933 280.795 25.24 281.675 26.36C282.555 27.4533 283.609 28.3067 284.835 28.92C286.089 29.5067 287.502 29.8 289.075 29.8ZM333.822 32.4L316.102 7.16H315.942V24.36C315.942 25.6933 315.982 26.7467 316.062 27.52C316.169 28.2933 316.369 28.8933 316.662 29.32C316.982 29.7467 317.409 30.0267 317.942 30.16C318.502 30.2933 319.222 30.3733 320.102 30.4V32H308.222V30.4C309.209 30.3733 309.995 30.2933 310.582 30.16C311.195 30 311.662 29.72 311.982 29.32C312.329 28.92 312.555 28.36 312.662 27.64C312.769 26.8933 312.822 25.8933 312.822 24.64V8.56C312.822 7.44 312.769 6.52 312.662 5.8C312.555 5.05333 312.355 4.46667 312.062 4.04C311.769 3.61333 311.342 3.32 310.782 3.16C310.249 2.97333 309.529 2.85333 308.622 2.8V1.2H319.782L335.902 24.32H336.062V8.84C336.062 7.53333 336.009 6.49333 335.902 5.72C335.822 4.92 335.622 4.30667 335.302 3.88C335.009 3.45333 334.582 3.17333 334.022 3.04C333.489 2.90667 332.782 2.82667 331.902 2.8V1.2H343.782V2.8C342.795 2.82667 341.995 2.92 341.382 3.08C340.795 3.21333 340.329 3.48 339.982 3.88C339.662 4.28 339.449 4.85333 339.342 5.6C339.235 6.34667 339.182 7.33333 339.182 8.56V32.4H333.822ZM346.204 21.8H347.764C348.137 24.3333 349.15 26.3333 350.804 27.8C352.457 29.24 354.497 29.96 356.924 29.96C357.91 29.96 358.817 29.84 359.644 29.6C360.47 29.36 361.177 29.0267 361.764 28.6C362.35 28.1467 362.804 27.6267 363.124 27.04C363.444 26.4267 363.604 25.7467 363.604 25C363.604 24.36 363.497 23.8133 363.284 23.36C363.097 22.88 362.724 22.4267 362.164 22C361.604 21.5467 360.83 21.0933 359.844 20.64C358.884 20.1867 357.63 19.6667 356.084 19.08C352.964 17.88 350.657 16.4933 349.164 14.92C347.67 13.32 346.924 11.44 346.924 9.28C346.924 8.02667 347.164 6.88 347.644 5.84C348.124 4.8 348.79 3.90667 349.644 3.16C350.524 2.41333 351.564 1.84 352.764 1.44C353.99 1.01333 355.337 0.799999 356.804 0.799999C358.164 0.799999 359.444 1.01333 360.644 1.44C361.844 1.86667 363.03 2.50667 364.204 3.36L364.924 1.36H365.884L366.324 10H364.764C364.124 7.81333 363.124 6.14667 361.764 5C360.404 3.82667 358.83 3.24 357.044 3.24C355.39 3.24 354.044 3.65333 353.004 4.48C351.99 5.28 351.484 6.32 351.484 7.6C351.484 8.16 351.577 8.66667 351.764 9.12C351.95 9.54666 352.297 9.96 352.804 10.36C353.31 10.76 354.004 11.1733 354.884 11.6C355.764 12 356.897 12.4533 358.284 12.96C360.15 13.68 361.737 14.4133 363.044 15.16C364.377 15.88 365.457 16.6667 366.284 17.52C367.137 18.3467 367.764 19.2267 368.164 20.16C368.564 21.0933 368.764 22.12 368.764 23.24C368.764 24.6 368.47 25.84 367.884 26.96C367.297 28.08 366.47 29.04 365.404 29.84C364.364 30.64 363.11 31.2667 361.644 31.72C360.204 32.1733 358.604 32.4 356.844 32.4C355.244 32.4 353.804 32.1867 352.524 31.76C351.244 31.3067 349.924 30.5867 348.564 29.6L347.764 32H346.804L346.204 21.8ZM400.447 19.6C400.447 21.8667 400.194 23.8133 399.687 25.44C399.207 27.04 398.447 28.36 397.407 29.4C396.367 30.44 395.021 31.2 393.367 31.68C391.741 32.16 389.781 32.4 387.487 32.4C383.194 32.4 380.047 31.5067 378.047 29.72C376.074 27.9067 375.087 25.0267 375.087 21.08V10.12C375.087 9.08 375.074 8.21333 375.047 7.52C375.021 6.8 374.981 6.2 374.927 5.72C374.874 5.24 374.794 4.85333 374.687 4.56C374.607 4.24 374.501 3.97333 374.367 3.76C374.127 3.38667 373.781 3.13333 373.327 3C372.874 2.86667 372.181 2.8 371.247 2.8V1.2H385.607V2.8C384.487 2.8 383.661 2.86667 383.127 3C382.594 3.10667 382.181 3.33333 381.887 3.68C381.701 3.89333 381.541 4.16 381.407 4.48C381.301 4.77333 381.207 5.17333 381.127 5.68C381.074 6.16 381.034 6.76 381.007 7.48C380.981 8.2 380.967 9.08 380.967 10.12V20.6C380.967 23.64 381.607 25.8933 382.887 27.36C384.194 28.8 386.194 29.52 388.887 29.52C394.381 29.52 397.127 26.4667 397.127 20.36V11.12C397.127 10 397.101 9.04 397.047 8.24C397.021 7.44 396.954 6.76 396.847 6.2C396.767 5.64 396.647 5.17333 396.487 4.8C396.354 4.42667 396.181 4.12 395.967 3.88C395.594 3.50667 395.114 3.24 394.527 3.08C393.941 2.89333 393.127 2.8 392.087 2.8V1.2H405.047V2.8C404.061 2.8 403.301 2.88 402.767 3.04C402.234 3.17333 401.821 3.42666 401.527 3.8C401.314 4.04 401.141 4.36 401.007 4.76C400.874 5.13333 400.767 5.61333 400.687 6.2C400.607 6.76 400.541 7.44 400.487 8.24C400.461 9.04 400.447 10 400.447 11.12V19.6ZM433.922 32H406.362V30.4C407.242 30.3733 407.962 30.2933 408.522 30.16C409.082 30.0267 409.509 29.8 409.802 29.48C410.096 29.16 410.296 28.7067 410.402 28.12C410.509 27.5333 410.562 26.7733 410.562 25.84V7.36C410.562 6.42667 410.509 5.68 410.402 5.12C410.322 4.53333 410.149 4.08 409.882 3.76C409.616 3.41333 409.229 3.18666 408.722 3.08C408.242 2.94666 407.602 2.85333 406.802 2.8V1.2H420.602V2.8C419.696 2.82667 418.962 2.90667 418.402 3.04C417.869 3.17333 417.456 3.41333 417.162 3.76C416.869 4.10667 416.669 4.58667 416.562 5.2C416.482 5.81333 416.442 6.62667 416.442 7.64V24.4C416.442 25.52 416.549 26.44 416.762 27.16C417.002 27.8533 417.402 28.4 417.962 28.8C418.522 29.1733 419.269 29.44 420.202 29.6C421.136 29.7333 422.296 29.8 423.682 29.8C425.229 29.8 426.522 29.7067 427.562 29.52C428.602 29.3333 429.469 28.9867 430.162 28.48C430.882 27.9467 431.456 27.24 431.882 26.36C432.309 25.48 432.669 24.3333 432.962 22.92H434.562L433.922 32ZM463.022 10H461.302C461.222 8.69333 461.022 7.61333 460.702 6.76C460.409 5.88 459.982 5.18667 459.422 4.68C458.862 4.14667 458.182 3.78667 457.382 3.6C456.582 3.38666 455.649 3.28 454.582 3.28C453.542 3.28 452.702 3.30666 452.062 3.36C451.449 3.38667 450.969 3.45333 450.622 3.56C450.302 3.64 450.089 3.76 449.982 3.92C449.875 4.08 449.822 4.28 449.822 4.52V25.48C449.822 26.3333 449.875 27.0667 449.982 27.68C450.115 28.2933 450.369 28.8 450.742 29.2C451.115 29.5733 451.662 29.8667 452.382 30.08C453.102 30.2667 454.049 30.3733 455.222 30.4V32H438.462V30.4C439.662 30.3733 440.622 30.2667 441.342 30.08C442.062 29.8667 442.609 29.5733 442.982 29.2C443.382 28.8 443.635 28.2933 443.742 27.68C443.875 27.0667 443.942 26.3333 443.942 25.48V4.52C443.942 4.28 443.889 4.08 443.782 3.92C443.702 3.76 443.515 3.64 443.222 3.56C442.929 3.45333 442.502 3.38667 441.942 3.36C441.409 3.30666 440.702 3.28 439.822 3.28C438.862 3.28 437.942 3.33333 437.062 3.44C436.182 3.52 435.409 3.78667 434.742 4.24C434.075 4.66667 433.529 5.33333 433.102 6.24C432.702 7.12 432.489 8.37333 432.462 10H430.902L431.302 1.2H462.622L463.022 10ZM478.828 32H464.548V30.4C465.454 30.3733 466.174 30.2933 466.708 30.16C467.268 30 467.694 29.72 467.988 29.32C468.281 28.92 468.481 28.36 468.588 27.64C468.694 26.8933 468.748 25.8933 468.748 24.64V8.56C468.748 7.44 468.694 6.52 468.588 5.8C468.508 5.05333 468.334 4.46667 468.068 4.04C467.801 3.61333 467.414 3.32 466.908 3.16C466.428 2.97333 465.774 2.85333 464.948 2.8V1.2H478.428V2.8C477.601 2.85333 476.934 2.97333 476.428 3.16C475.948 3.32 475.574 3.61333 475.308 4.04C475.041 4.46667 474.854 5.05333 474.748 5.8C474.668 6.52 474.628 7.44 474.628 8.56V24.64C474.628 25.8933 474.668 26.8933 474.748 27.64C474.854 28.36 475.054 28.92 475.348 29.32C475.668 29.72 476.094 30 476.628 30.16C477.188 30.2933 477.921 30.3733 478.828 30.4V32ZM506.656 32.4L488.936 7.16H488.776V24.36C488.776 25.6933 488.816 26.7467 488.896 27.52C489.003 28.2933 489.203 28.8933 489.496 29.32C489.816 29.7467 490.243 30.0267 490.776 30.16C491.336 30.2933 492.056 30.3733 492.936 30.4V32H481.056V30.4C482.043 30.3733 482.83 30.2933 483.416 30.16C484.03 30 484.496 29.72 484.816 29.32C485.163 28.92 485.39 28.36 485.496 27.64C485.603 26.8933 485.656 25.8933 485.656 24.64V8.56C485.656 7.44 485.603 6.52 485.496 5.8C485.39 5.05333 485.19 4.46667 484.896 4.04C484.603 3.61333 484.176 3.32 483.616 3.16C483.083 2.97333 482.363 2.85333 481.456 2.8V1.2H492.616L508.736 24.32H508.896V8.84C508.896 7.53333 508.843 6.49333 508.736 5.72C508.656 4.92 508.456 4.30667 508.136 3.88C507.843 3.45333 507.416 3.17333 506.856 3.04C506.323 2.90667 505.616 2.82667 504.736 2.8V1.2H516.616V2.8C515.63 2.82667 514.83 2.92 514.216 3.08C513.63 3.21333 513.163 3.48 512.816 3.88C512.496 4.28 512.283 4.85333 512.176 5.6C512.07 6.34667 512.016 7.33333 512.016 8.56V32.4H506.656ZM534.125 32.4C531.725 32.4 529.551 32.0533 527.605 31.36C525.685 30.64 524.045 29.6267 522.685 28.32C521.351 26.9867 520.311 25.3867 519.565 23.52C518.845 21.6267 518.485 19.5067 518.485 17.16C518.485 14.7333 518.871 12.52 519.645 10.52C520.445 8.49333 521.551 6.76 522.965 5.32C524.378 3.88 526.071 2.77333 528.045 2C530.018 1.2 532.205 0.799999 534.605 0.799999C536.258 0.799999 537.831 1.02667 539.325 1.48C540.818 1.93333 542.431 2.66667 544.165 3.68L544.925 1.2H546.365V11.32H544.365C543.831 8.81333 542.751 6.86667 541.125 5.48C539.525 4.09333 537.511 3.4 535.085 3.4C532.018 3.4 529.631 4.58667 527.925 6.96C526.245 9.30666 525.405 12.6 525.405 16.84C525.405 21 526.231 24.1867 527.885 26.4C529.538 28.6133 531.938 29.72 535.085 29.72C537.351 29.72 539.111 29.1467 540.365 28C541.645 26.8267 542.285 25.2133 542.285 23.16C542.285 21.9333 541.965 21.04 541.325 20.48C540.685 19.8933 539.605 19.5333 538.085 19.4V17.8H551.045V19.4C549.738 19.4 548.831 19.6933 548.325 20.28C547.818 20.84 547.565 21.8667 547.565 23.36V28.68C546.978 28.68 546.485 28.7067 546.085 28.76C545.685 28.7867 545.285 28.8667 544.885 29C544.511 29.1067 544.085 29.2933 543.605 29.56C543.125 29.8267 542.525 30.1733 541.805 30.6C539.751 31.8 537.191 32.4 534.125 32.4ZM609.117 32.4C606.717 32.4 604.544 32.0533 602.597 31.36C600.677 30.64 599.037 29.6267 597.677 28.32C596.344 26.9867 595.304 25.3867 594.557 23.52C593.837 21.6267 593.477 19.5067 593.477 17.16C593.477 14.7333 593.864 12.52 594.637 10.52C595.437 8.49333 596.544 6.76 597.957 5.32C599.37 3.88 601.064 2.77333 603.037 2C605.01 1.2 607.197 0.799999 609.597 0.799999C611.25 0.799999 612.824 1.02667 614.317 1.48C615.81 1.93333 617.424 2.66667 619.157 3.68L619.917 1.2H621.357V11.32H619.357C618.824 8.81333 617.744 6.86667 616.117 5.48C614.517 4.09333 612.504 3.4 610.077 3.4C607.01 3.4 604.624 4.58667 602.917 6.96C601.237 9.30666 600.397 12.6 600.397 16.84C600.397 21 601.224 24.1867 602.877 26.4C604.53 28.6133 606.93 29.72 610.077 29.72C612.344 29.72 614.104 29.1467 615.357 28C616.637 26.8267 617.277 25.2133 617.277 23.16C617.277 21.9333 616.957 21.04 616.317 20.48C615.677 19.8933 614.597 19.5333 613.077 19.4V17.8H626.037V19.4C624.73 19.4 623.824 19.6933 623.317 20.28C622.81 20.84 622.557 21.8667 622.557 23.36V28.68C621.97 28.68 621.477 28.7067 621.077 28.76C620.677 28.7867 620.277 28.8667 619.877 29C619.504 29.1067 619.077 29.2933 618.597 29.56C618.117 29.8267 617.517 30.1733 616.797 30.6C614.744 31.8 612.184 32.4 609.117 32.4ZM658.406 10H656.686C656.606 8.69333 656.406 7.61333 656.086 6.76C655.793 5.88 655.366 5.18667 654.806 4.68C654.246 4.14667 653.566 3.78667 652.766 3.6C651.966 3.38666 651.033 3.28 649.966 3.28C648.926 3.28 648.086 3.30666 647.446 3.36C646.833 3.38667 646.353 3.45333 646.006 3.56C645.686 3.64 645.473 3.76 645.366 3.92C645.26 4.08 645.206 4.28 645.206 4.52V25.48C645.206 26.3333 645.26 27.0667 645.366 27.68C645.5 28.2933 645.753 28.8 646.126 29.2C646.5 29.5733 647.046 29.8667 647.766 30.08C648.486 30.2667 649.433 30.3733 650.606 30.4V32H633.846V30.4C635.046 30.3733 636.006 30.2667 636.726 30.08C637.446 29.8667 637.993 29.5733 638.366 29.2C638.766 28.8 639.02 28.2933 639.126 27.68C639.26 27.0667 639.326 26.3333 639.326 25.48V4.52C639.326 4.28 639.273 4.08 639.166 3.92C639.086 3.76 638.9 3.64 638.606 3.56C638.313 3.45333 637.886 3.38667 637.326 3.36C636.793 3.30666 636.086 3.28 635.206 3.28C634.246 3.28 633.326 3.33333 632.446 3.44C631.566 3.52 630.793 3.78667 630.126 4.24C629.46 4.66667 628.913 5.33333 628.486 6.24C628.086 7.12 627.873 8.37333 627.846 10H626.286L626.686 1.2H658.006L658.406 10ZM681.732 24.52L690.972 1.2H702.652V2.8C701.772 2.8 701.052 2.89333 700.492 3.08C699.959 3.24 699.546 3.54667 699.252 4C698.959 4.45333 698.759 5.08 698.652 5.88C698.572 6.65333 698.532 7.64 698.532 8.84V24.36C698.532 25.6933 698.586 26.7467 698.692 27.52C698.799 28.2933 699.012 28.8933 699.332 29.32C699.652 29.7467 700.106 30.0267 700.692 30.16C701.306 30.2933 702.106 30.3733 703.092 30.4V32H688.052V30.4C689.039 30.3733 689.826 30.2933 690.412 30.16C691.026 30 691.492 29.72 691.812 29.32C692.159 28.92 692.386 28.36 692.492 27.64C692.599 26.8933 692.652 25.8933 692.652 24.64V5.92H692.452L681.692 32.4H678.732L667.612 5.92H667.452V24.36C667.452 25.6933 667.506 26.7467 667.612 27.52C667.719 28.2933 667.932 28.8933 668.252 29.32C668.572 29.7467 669.026 30.0267 669.612 30.16C670.226 30.2933 671.026 30.3733 672.012 30.4V32H659.692V30.4C660.679 30.3733 661.479 30.2933 662.092 30.16C662.706 30 663.172 29.72 663.492 29.32C663.839 28.92 664.066 28.36 664.172 27.64C664.279 26.8933 664.332 25.8933 664.332 24.64V8.56C664.332 7.44 664.279 6.50667 664.172 5.76C664.066 5.01333 663.866 4.42667 663.572 4C663.279 3.54667 662.852 3.24 662.292 3.08C661.759 2.89333 661.039 2.8 660.132 2.8V1.2H672.252L681.572 24.52H681.732ZM723.938 28.56V19.72H715.458V17.24H723.938V8.4H726.658V17.24H735.138V19.72H726.658V28.56H723.938ZM748.466 21.8H750.026C750.4 24.3333 751.413 26.3333 753.066 27.8C754.72 29.24 756.76 29.96 759.186 29.96C760.173 29.96 761.08 29.84 761.906 29.6C762.733 29.36 763.44 29.0267 764.026 28.6C764.613 28.1467 765.066 27.6267 765.386 27.04C765.706 26.4267 765.866 25.7467 765.866 25C765.866 24.36 765.76 23.8133 765.546 23.36C765.36 22.88 764.986 22.4267 764.426 22C763.866 21.5467 763.093 21.0933 762.106 20.64C761.146 20.1867 759.893 19.6667 758.346 19.08C755.226 17.88 752.92 16.4933 751.426 14.92C749.933 13.32 749.186 11.44 749.186 9.28C749.186 8.02667 749.426 6.88 749.906 5.84C750.386 4.8 751.053 3.90667 751.906 3.16C752.786 2.41333 753.826 1.84 755.026 1.44C756.253 1.01333 757.6 0.799999 759.066 0.799999C760.426 0.799999 761.706 1.01333 762.906 1.44C764.106 1.86667 765.293 2.50667 766.466 3.36L767.186 1.36H768.146L768.586 10H767.026C766.386 7.81333 765.386 6.14667 764.026 5C762.666 3.82667 761.093 3.24 759.306 3.24C757.653 3.24 756.306 3.65333 755.266 4.48C754.253 5.28 753.746 6.32 753.746 7.6C753.746 8.16 753.84 8.66667 754.026 9.12C754.213 9.54666 754.56 9.96 755.066 10.36C755.573 10.76 756.266 11.1733 757.146 11.6C758.026 12 759.16 12.4533 760.546 12.96C762.413 13.68 764 14.4133 765.306 15.16C766.64 15.88 767.72 16.6667 768.546 17.52C769.4 18.3467 770.026 19.2267 770.426 20.16C770.826 21.0933 771.026 22.12 771.026 23.24C771.026 24.6 770.733 25.84 770.146 26.96C769.56 28.08 768.733 29.04 767.666 29.84C766.626 30.64 765.373 31.2667 763.906 31.72C762.466 32.1733 760.866 32.4 759.106 32.4C757.506 32.4 756.066 32.1867 754.786 31.76C753.506 31.3067 752.186 30.5867 750.826 29.6L750.026 32H749.066L748.466 21.8ZM791.767 22.68H780.447C779.193 25.5067 778.567 27.4667 778.567 28.56C778.567 29.36 778.86 29.8667 779.447 30.08C780.06 30.2933 780.967 30.4 782.167 30.4V32H771.207V30.4C771.847 30.32 772.393 30.2133 772.847 30.08C773.327 29.9467 773.74 29.76 774.087 29.52C774.46 29.28 774.78 28.9733 775.047 28.6C775.313 28.2 775.567 27.72 775.807 27.16L786.327 0.799999H789.287L798.847 24.16C799.407 25.52 799.873 26.5867 800.247 27.36C800.647 28.1333 801.06 28.7333 801.487 29.16C801.94 29.56 802.447 29.84 803.007 30C803.593 30.16 804.34 30.28 805.247 30.36V32H790.127V30.36C791.407 30.3067 792.327 30.1733 792.887 29.96C793.447 29.7467 793.727 29.32 793.727 28.68C793.727 28.3067 793.633 27.8267 793.447 27.24C793.26 26.6533 793.007 25.9333 792.687 25.08L791.767 22.68ZM781.367 20.28H790.887L786.287 8.16H786.127L781.367 20.28ZM832.63 32H805.07V30.4C805.95 30.3733 806.67 30.2933 807.23 30.16C807.79 30.0267 808.217 29.8 808.51 29.48C808.804 29.16 809.004 28.7067 809.11 28.12C809.217 27.5333 809.27 26.7733 809.27 25.84V7.36C809.27 6.42667 809.217 5.68 809.11 5.12C809.03 4.53333 808.857 4.08 808.59 3.76C808.324 3.41333 807.937 3.18666 807.43 3.08C806.95 2.94666 806.31 2.85333 805.51 2.8V1.2H819.31V2.8C818.404 2.82667 817.67 2.90667 817.11 3.04C816.577 3.17333 816.164 3.41333 815.87 3.76C815.577 4.10667 815.377 4.58667 815.27 5.2C815.19 5.81333 815.15 6.62667 815.15 7.64V24.4C815.15 25.52 815.257 26.44 815.47 27.16C815.71 27.8533 816.11 28.4 816.67 28.8C817.23 29.1733 817.977 29.44 818.91 29.6C819.844 29.7333 821.004 29.8 822.39 29.8C823.937 29.8 825.23 29.7067 826.27 29.52C827.31 29.3333 828.177 28.9867 828.87 28.48C829.59 27.9467 830.164 27.24 830.59 26.36C831.017 25.48 831.377 24.3333 831.67 22.92H833.27L832.63 32ZM844.946 14.96C846.652 14.96 848.026 14.9067 849.066 14.8C850.106 14.6933 850.906 14.48 851.466 14.16C852.052 13.8133 852.466 13.32 852.706 12.68C852.946 12.04 853.132 11.1733 853.266 10.08H854.746V21.8H853.266C853.106 20.7333 852.892 19.88 852.626 19.24C852.359 18.6 851.932 18.12 851.346 17.8C850.759 17.4533 849.959 17.24 848.946 17.16C847.959 17.0533 846.626 17 844.946 17V25.24C844.946 26.0933 845.052 26.8133 845.266 27.4C845.506 27.9867 845.892 28.4667 846.426 28.84C846.959 29.1867 847.666 29.44 848.546 29.6C849.426 29.7333 850.506 29.8 851.786 29.8C853.306 29.8 854.586 29.6933 855.626 29.48C856.692 29.2667 857.572 28.8933 858.266 28.36C858.959 27.8267 859.519 27.12 859.946 26.24C860.372 25.3333 860.732 24.2 861.026 22.84H862.626L861.986 32H834.866V30.4C835.746 30.3733 836.466 30.2933 837.026 30.16C837.586 30.0267 838.012 29.8 838.306 29.48C838.599 29.16 838.799 28.7067 838.906 28.12C839.012 27.5333 839.066 26.7733 839.066 25.84V7.36C839.066 6.42667 839.012 5.68 838.906 5.12C838.826 4.53333 838.652 4.08 838.386 3.76C838.119 3.41333 837.732 3.18666 837.226 3.08C836.746 2.94666 836.106 2.85333 835.306 2.8V1.2H860.586L860.866 9.04H859.146C858.986 7.92 858.732 7 858.386 6.28C858.039 5.53333 857.559 4.94667 856.946 4.52C856.332 4.06666 855.532 3.76 854.546 3.6C853.586 3.41333 852.399 3.32 850.986 3.32H846.466C845.772 3.32 845.346 3.41333 845.186 3.6C845.026 3.76 844.946 4.16 844.946 4.8V14.96ZM865.772 21.8H867.332C867.706 24.3333 868.719 26.3333 870.372 27.8C872.026 29.24 874.066 29.96 876.492 29.96C877.479 29.96 878.386 29.84 879.212 29.6C880.039 29.36 880.746 29.0267 881.332 28.6C881.919 28.1467 882.372 27.6267 882.692 27.04C883.012 26.4267 883.172 25.7467 883.172 25C883.172 24.36 883.066 23.8133 882.852 23.36C882.666 22.88 882.292 22.4267 881.732 22C881.172 21.5467 880.399 21.0933 879.412 20.64C878.452 20.1867 877.199 19.6667 875.652 19.08C872.532 17.88 870.226 16.4933 868.732 14.92C867.239 13.32 866.492 11.44 866.492 9.28C866.492 8.02667 866.732 6.88 867.212 5.84C867.692 4.8 868.359 3.90667 869.212 3.16C870.092 2.41333 871.132 1.84 872.332 1.44C873.559 1.01333 874.906 0.799999 876.372 0.799999C877.732 0.799999 879.012 1.01333 880.212 1.44C881.412 1.86667 882.599 2.50667 883.772 3.36L884.492 1.36H885.452L885.892 10H884.332C883.692 7.81333 882.692 6.14667 881.332 5C879.972 3.82667 878.399 3.24 876.612 3.24C874.959 3.24 873.612 3.65333 872.572 4.48C871.559 5.28 871.052 6.32 871.052 7.6C871.052 8.16 871.146 8.66667 871.332 9.12C871.519 9.54666 871.866 9.96 872.372 10.36C872.879 10.76 873.572 11.1733 874.452 11.6C875.332 12 876.466 12.4533 877.852 12.96C879.719 13.68 881.306 14.4133 882.612 15.16C883.946 15.88 885.026 16.6667 885.852 17.52C886.706 18.3467 887.332 19.2267 887.732 20.16C888.132 21.0933 888.332 22.12 888.332 23.24C888.332 24.6 888.039 25.84 887.452 26.96C886.866 28.08 886.039 29.04 884.972 29.84C883.932 30.64 882.679 31.2667 881.212 31.72C879.772 32.1733 878.172 32.4 876.412 32.4C874.812 32.4 873.372 32.1867 872.092 31.76C870.812 31.3067 869.492 30.5867 868.132 29.6L867.332 32H866.372L865.772 21.8ZM948.156 32.4C945.756 32.4 943.583 32.0533 941.636 31.36C939.716 30.64 938.076 29.6267 936.716 28.32C935.383 26.9867 934.343 25.3867 933.596 23.52C932.876 21.6267 932.516 19.5067 932.516 17.16C932.516 14.7333 932.903 12.52 933.676 10.52C934.476 8.49333 935.583 6.76 936.996 5.32C938.409 3.88 940.103 2.77333 942.076 2C944.049 1.2 946.236 0.799999 948.636 0.799999C950.289 0.799999 951.863 1.02667 953.356 1.48C954.849 1.93333 956.463 2.66667 958.196 3.68L958.956 1.2H960.396V11.32H958.396C957.863 8.81333 956.783 6.86667 955.156 5.48C953.556 4.09333 951.543 3.4 949.116 3.4C946.049 3.4 943.663 4.58667 941.956 6.96C940.276 9.30666 939.436 12.6 939.436 16.84C939.436 21 940.263 24.1867 941.916 26.4C943.569 28.6133 945.969 29.72 949.116 29.72C951.383 29.72 953.143 29.1467 954.396 28C955.676 26.8267 956.316 25.2133 956.316 23.16C956.316 21.9333 955.996 21.04 955.356 20.48C954.716 19.8933 953.636 19.5333 952.116 19.4V17.8H965.076V19.4C963.769 19.4 962.863 19.6933 962.356 20.28C961.849 20.84 961.596 21.8667 961.596 23.36V28.68C961.009 28.68 960.516 28.7067 960.116 28.76C959.716 28.7867 959.316 28.8667 958.916 29C958.543 29.1067 958.116 29.2933 957.636 29.56C957.156 29.8267 956.556 30.1733 955.836 30.6C953.783 31.8 951.223 32.4 948.156 32.4ZM976.755 14.96C978.462 14.96 979.835 14.9067 980.875 14.8C981.915 14.6933 982.715 14.48 983.275 14.16C983.862 13.8133 984.275 13.32 984.515 12.68C984.755 12.04 984.942 11.1733 985.075 10.08H986.555V21.8H985.075C984.915 20.7333 984.702 19.88 984.435 19.24C984.168 18.6 983.742 18.12 983.155 17.8C982.568 17.4533 981.768 17.24 980.755 17.16C979.768 17.0533 978.435 17 976.755 17V25.24C976.755 26.0933 976.862 26.8133 977.075 27.4C977.315 27.9867 977.702 28.4667 978.235 28.84C978.768 29.1867 979.475 29.44 980.355 29.6C981.235 29.7333 982.315 29.8 983.595 29.8C985.115 29.8 986.395 29.6933 987.435 29.48C988.502 29.2667 989.382 28.8933 990.075 28.36C990.768 27.8267 991.328 27.12 991.755 26.24C992.182 25.3333 992.542 24.2 992.835 22.84H994.435L993.795 32H966.675V30.4C967.555 30.3733 968.275 30.2933 968.835 30.16C969.395 30.0267 969.822 29.8 970.115 29.48C970.408 29.16 970.608 28.7067 970.715 28.12C970.822 27.5333 970.875 26.7733 970.875 25.84V7.36C970.875 6.42667 970.822 5.68 970.715 5.12C970.635 4.53333 970.462 4.08 970.195 3.76C969.928 3.41333 969.542 3.18666 969.035 3.08C968.555 2.94666 967.915 2.85333 967.115 2.8V1.2H992.395L992.675 9.04H990.955C990.795 7.92 990.542 7 990.195 6.28C989.848 5.53333 989.368 4.94667 988.755 4.52C988.142 4.06666 987.342 3.76 986.355 3.6C985.395 3.41333 984.208 3.32 982.795 3.32H978.275C977.582 3.32 977.155 3.41333 976.995 3.6C976.835 3.76 976.755 4.16 976.755 4.8V14.96ZM1022.22 32.4L1004.5 7.16H1004.34V24.36C1004.34 25.6933 1004.38 26.7467 1004.46 27.52C1004.57 28.2933 1004.77 28.8933 1005.06 29.32C1005.38 29.7467 1005.81 30.0267 1006.34 30.16C1006.9 30.2933 1007.62 30.3733 1008.5 30.4V32H996.622V30.4C997.609 30.3733 998.395 30.2933 998.982 30.16C999.595 30 1000.06 29.72 1000.38 29.32C1000.73 28.92 1000.96 28.36 1001.06 27.64C1001.17 26.8933 1001.22 25.8933 1001.22 24.64V8.56C1001.22 7.44 1001.17 6.52 1001.06 5.8C1000.96 5.05333 1000.76 4.46667 1000.46 4.04C1000.17 3.61333 999.742 3.32 999.182 3.16C998.649 2.97333 997.929 2.85333 997.022 2.8V1.2H1008.18L1024.3 24.32H1024.46V8.84C1024.46 7.53333 1024.41 6.49333 1024.3 5.72C1024.22 4.92 1024.02 4.30667 1023.7 3.88C1023.41 3.45333 1022.98 3.17333 1022.42 3.04C1021.89 2.90667 1021.18 2.82667 1020.3 2.8V1.2H1032.18V2.8C1031.2 2.82667 1030.4 2.92 1029.78 3.08C1029.2 3.21333 1028.73 3.48 1028.38 3.88C1028.06 4.28 1027.85 4.85333 1027.74 5.6C1027.64 6.34667 1027.58 7.33333 1027.58 8.56V32.4H1022.22ZM1061.3 22.68H1049.98C1048.73 25.5067 1048.1 27.4667 1048.1 28.56C1048.1 29.36 1048.4 29.8667 1048.98 30.08C1049.6 30.2933 1050.5 30.4 1051.7 30.4V32H1040.74V30.4C1041.38 30.32 1041.93 30.2133 1042.38 30.08C1042.86 29.9467 1043.28 29.76 1043.62 29.52C1044 29.28 1044.32 28.9733 1044.58 28.6C1044.85 28.2 1045.1 27.72 1045.34 27.16L1055.86 0.799999H1058.82L1068.38 24.16C1068.94 25.52 1069.41 26.5867 1069.78 27.36C1070.18 28.1333 1070.6 28.7333 1071.02 29.16C1071.48 29.56 1071.98 29.84 1072.54 30C1073.13 30.16 1073.88 30.28 1074.78 30.36V32H1059.66V30.36C1060.94 30.3067 1061.86 30.1733 1062.42 29.96C1062.98 29.7467 1063.26 29.32 1063.26 28.68C1063.26 28.3067 1063.17 27.8267 1062.98 27.24C1062.8 26.6533 1062.54 25.9333 1062.22 25.08L1061.3 22.68ZM1050.9 20.28H1060.42L1055.82 8.16H1055.66L1050.9 20.28ZM1088.93 32H1074.65V30.4C1075.55 30.3733 1076.27 30.2933 1076.81 30.16C1077.37 30 1077.79 29.72 1078.09 29.32C1078.38 28.92 1078.58 28.36 1078.69 27.64C1078.79 26.8933 1078.85 25.8933 1078.85 24.64V8.56C1078.85 7.44 1078.79 6.52 1078.69 5.8C1078.61 5.05333 1078.43 4.46667 1078.17 4.04C1077.9 3.61333 1077.51 3.32 1077.01 3.16C1076.53 2.97333 1075.87 2.85333 1075.05 2.8V1.2H1088.53V2.8C1087.7 2.85333 1087.03 2.97333 1086.53 3.16C1086.05 3.32 1085.67 3.61333 1085.41 4.04C1085.14 4.46667 1084.95 5.05333 1084.85 5.8C1084.77 6.52 1084.73 7.44 1084.73 8.56V24.64C1084.73 25.8933 1084.77 26.8933 1084.85 27.64C1084.95 28.36 1085.15 28.92 1085.45 29.32C1085.77 29.72 1086.19 30 1086.73 30.16C1087.29 30.2933 1088.02 30.3733 1088.93 30.4V32ZM1101.58 32V30.4C1102.46 30.3733 1103.17 30.3067 1103.7 30.2C1104.26 30.0667 1104.69 29.84 1104.98 29.52C1105.3 29.1733 1105.51 28.72 1105.62 28.16C1105.73 27.5733 1105.78 26.8 1105.78 25.84V7.36C1105.78 6.42667 1105.74 5.68 1105.66 5.12C1105.58 4.53333 1105.41 4.08 1105.14 3.76C1104.87 3.41333 1104.5 3.18666 1104.02 3.08C1103.57 2.94666 1102.97 2.85333 1102.22 2.8V1.2H1117.42C1119.98 1.2 1122.34 1.6 1124.5 2.4C1126.66 3.2 1128.53 4.30667 1130.1 5.72C1131.67 7.13333 1132.9 8.81333 1133.78 10.76C1134.66 12.7067 1135.1 14.8267 1135.1 17.12C1135.1 19.3067 1134.69 21.32 1133.86 23.16C1133.03 24.9733 1131.87 26.5333 1130.38 27.84C1128.91 29.1467 1127.14 30.1733 1125.06 30.92C1123.01 31.64 1120.74 32 1118.26 32H1101.58ZM1112.34 3.64C1111.89 3.64 1111.66 3.86666 1111.66 4.32V25C1111.66 26.5467 1112.14 27.6933 1113.1 28.44C1114.06 29.1867 1115.54 29.56 1117.54 29.56C1121.03 29.56 1123.71 28.5067 1125.58 26.4C1127.47 24.2933 1128.42 21.2267 1128.42 17.2C1128.42 15.0667 1128.17 13.16 1127.66 11.48C1127.15 9.8 1126.42 8.38667 1125.46 7.24C1124.5 6.06667 1123.33 5.17333 1121.94 4.56C1120.58 3.94666 1119.05 3.64 1117.34 3.64H1112.34ZM1163.87 8.92C1163.87 11.1333 1163.23 12.9867 1161.95 14.48C1160.67 15.9733 1158.63 16.9733 1155.83 17.48L1165.11 28.12C1165.75 28.8667 1166.51 29.44 1167.39 29.84C1168.27 30.2133 1169.16 30.4 1170.07 30.4V32H1160.59L1150.67 19.84C1150 19.04 1149.42 18.5067 1148.91 18.24C1148.43 17.9467 1147.98 17.8 1147.55 17.8V25.64C1147.55 26.6267 1147.62 27.44 1147.75 28.08C1147.88 28.6933 1148.15 29.1733 1148.55 29.52C1148.95 29.8667 1149.52 30.1067 1150.27 30.24C1151.04 30.3467 1152.07 30.4 1153.35 30.4V32H1137.47V30.4C1138.35 30.4 1139.06 30.3467 1139.59 30.24C1140.15 30.1067 1140.58 29.88 1140.87 29.56C1141.19 29.2133 1141.4 28.7467 1141.51 28.16C1141.62 27.5467 1141.67 26.7733 1141.67 25.84V7.36C1141.67 6.42667 1141.63 5.68 1141.55 5.12C1141.47 4.53333 1141.3 4.08 1141.03 3.76C1140.76 3.41333 1140.38 3.18666 1139.87 3.08C1139.39 2.94666 1138.74 2.85333 1137.91 2.8V1.2H1151.75C1155.62 1.2 1158.6 1.88 1160.71 3.24C1162.82 4.6 1163.87 6.49333 1163.87 8.92ZM1147.55 15.4H1150.15C1152.66 15.4 1154.52 14.92 1155.75 13.96C1157 12.9733 1157.63 11.36 1157.63 9.12C1157.63 7.41333 1157.11 6.04 1156.07 5C1155.03 3.96 1153.59 3.44 1151.75 3.44H1148.27C1147.79 3.44 1147.55 3.66667 1147.55 4.12V15.4ZM1184.01 32H1169.73V30.4C1170.63 30.3733 1171.35 30.2933 1171.89 30.16C1172.45 30 1172.87 29.72 1173.17 29.32C1173.46 28.92 1173.66 28.36 1173.77 27.64C1173.87 26.8933 1173.93 25.8933 1173.93 24.64V8.56C1173.93 7.44 1173.87 6.52 1173.77 5.8C1173.69 5.05333 1173.51 4.46667 1173.25 4.04C1172.98 3.61333 1172.59 3.32 1172.09 3.16C1171.61 2.97333 1170.95 2.85333 1170.13 2.8V1.2H1183.61V2.8C1182.78 2.85333 1182.11 2.97333 1181.61 3.16C1181.13 3.32 1180.75 3.61333 1180.49 4.04C1180.22 4.46667 1180.03 5.05333 1179.93 5.8C1179.85 6.52 1179.81 7.44 1179.81 8.56V24.64C1179.81 25.8933 1179.85 26.8933 1179.93 27.64C1180.03 28.36 1180.23 28.92 1180.53 29.32C1180.85 29.72 1181.27 30 1181.81 30.16C1182.37 30.2933 1183.1 30.3733 1184.01 30.4V32ZM1202.55 25.12L1207.75 11.8C1208.26 10.4933 1208.66 9.42667 1208.95 8.6C1209.27 7.77333 1209.51 7.09333 1209.67 6.56C1209.83 6.02667 1209.94 5.6 1209.99 5.28C1210.05 4.96 1210.07 4.65333 1210.07 4.36C1210.07 3.72 1209.83 3.30666 1209.35 3.12C1208.87 2.90667 1207.91 2.8 1206.47 2.8V1.2H1217.83V2.8C1215.62 2.8 1214.09 3.88 1213.23 6.04L1202.71 32.4H1199.75L1190.19 9.04C1189.66 7.78667 1189.18 6.76 1188.75 5.96C1188.33 5.16 1187.87 4.53333 1187.39 4.08C1186.91 3.6 1186.38 3.28 1185.79 3.12C1185.23 2.93333 1184.57 2.84 1183.79 2.84V1.2H1198.91V2.84C1198.22 2.86667 1197.63 2.90667 1197.15 2.96C1196.7 3.01333 1196.34 3.10667 1196.07 3.24C1195.81 3.34667 1195.62 3.50667 1195.51 3.72C1195.41 3.90667 1195.35 4.14667 1195.35 4.44C1195.35 4.81333 1195.42 5.25333 1195.55 5.76C1195.69 6.26667 1195.89 6.88 1196.15 7.6L1202.55 25.12ZM1228.3 14.96C1230.01 14.96 1231.38 14.9067 1232.42 14.8C1233.46 14.6933 1234.26 14.48 1234.82 14.16C1235.41 13.8133 1235.82 13.32 1236.06 12.68C1236.3 12.04 1236.49 11.1733 1236.62 10.08H1238.1V21.8H1236.62C1236.46 20.7333 1236.25 19.88 1235.98 19.24C1235.72 18.6 1235.29 18.12 1234.7 17.8C1234.12 17.4533 1233.32 17.24 1232.3 17.16C1231.32 17.0533 1229.98 17 1228.3 17V25.24C1228.3 26.0933 1228.41 26.8133 1228.62 27.4C1228.86 27.9867 1229.25 28.4667 1229.78 28.84C1230.32 29.1867 1231.02 29.44 1231.9 29.6C1232.78 29.7333 1233.86 29.8 1235.14 29.8C1236.66 29.8 1237.94 29.6933 1238.98 29.48C1240.05 29.2667 1240.93 28.8933 1241.62 28.36C1242.32 27.8267 1242.88 27.12 1243.3 26.24C1243.73 25.3333 1244.09 24.2 1244.38 22.84H1245.98L1245.34 32H1218.22V30.4C1219.1 30.3733 1219.82 30.2933 1220.38 30.16C1220.94 30.0267 1221.37 29.8 1221.66 29.48C1221.96 29.16 1222.16 28.7067 1222.26 28.12C1222.37 27.5333 1222.42 26.7733 1222.42 25.84V7.36C1222.42 6.42667 1222.37 5.68 1222.26 5.12C1222.18 4.53333 1222.01 4.08 1221.74 3.76C1221.48 3.41333 1221.09 3.18666 1220.58 3.08C1220.1 2.94666 1219.46 2.85333 1218.66 2.8V1.2H1243.94L1244.22 9.04H1242.5C1242.34 7.92 1242.09 7 1241.74 6.28C1241.4 5.53333 1240.92 4.94667 1240.3 4.52C1239.69 4.06666 1238.89 3.76 1237.9 3.6C1236.94 3.41333 1235.76 3.32 1234.34 3.32H1229.82C1229.13 3.32 1228.7 3.41333 1228.54 3.6C1228.38 3.76 1228.3 4.16 1228.3 4.8V14.96ZM1273.77 32.4L1256.05 7.16H1255.89V24.36C1255.89 25.6933 1255.93 26.7467 1256.01 27.52C1256.12 28.2933 1256.32 28.8933 1256.61 29.32C1256.93 29.7467 1257.36 30.0267 1257.89 30.16C1258.45 30.2933 1259.17 30.3733 1260.05 30.4V32H1248.17V30.4C1249.16 30.3733 1249.94 30.2933 1250.53 30.16C1251.14 30 1251.61 29.72 1251.93 29.32C1252.28 28.92 1252.5 28.36 1252.61 27.64C1252.72 26.8933 1252.77 25.8933 1252.77 24.64V8.56C1252.77 7.44 1252.72 6.52 1252.61 5.8C1252.5 5.05333 1252.3 4.46667 1252.01 4.04C1251.72 3.61333 1251.29 3.32 1250.73 3.16C1250.2 2.97333 1249.48 2.85333 1248.57 2.8V1.2H1259.73L1275.85 24.32H1276.01V8.84C1276.01 7.53333 1275.96 6.49333 1275.85 5.72C1275.77 4.92 1275.57 4.30667 1275.25 3.88C1274.96 3.45333 1274.53 3.17333 1273.97 3.04C1273.44 2.90667 1272.73 2.82667 1271.85 2.8V1.2H1283.73V2.8C1282.74 2.82667 1281.94 2.92 1281.33 3.08C1280.74 3.21333 1280.28 3.48 1279.93 3.88C1279.61 4.28 1279.4 4.85333 1279.29 5.6C1279.18 6.34667 1279.13 7.33333 1279.13 8.56V32.4H1273.77ZM1322.41 9.76C1322.41 12.64 1321.29 14.84 1319.05 16.36C1316.81 17.8533 1313.56 18.6 1309.29 18.6H1305.89V25.64C1305.89 26.6533 1305.96 27.48 1306.09 28.12C1306.22 28.7333 1306.5 29.2133 1306.93 29.56C1307.36 29.9067 1307.94 30.1333 1308.69 30.24C1309.44 30.3467 1310.44 30.4 1311.69 30.4V32H1295.81V30.4C1296.69 30.3733 1297.41 30.2933 1297.97 30.16C1298.53 30.0267 1298.96 29.8 1299.25 29.48C1299.54 29.16 1299.74 28.7067 1299.85 28.12C1299.96 27.5333 1300.01 26.7733 1300.01 25.84V7.36C1300.01 6.42667 1299.96 5.68 1299.85 5.12C1299.77 4.53333 1299.6 4.08 1299.33 3.76C1299.06 3.41333 1298.68 3.18666 1298.17 3.08C1297.69 2.94666 1297.05 2.85333 1296.25 2.8V1.2H1310.09C1314.14 1.2 1317.21 1.92 1319.29 3.36C1321.37 4.8 1322.41 6.93333 1322.41 9.76ZM1305.89 16.2H1308.49C1311.08 16.2 1312.97 15.68 1314.17 14.64C1315.37 13.6 1315.97 11.96 1315.97 9.72C1315.97 7.72 1315.46 6.17333 1314.45 5.08C1313.44 3.98666 1311.85 3.44 1309.69 3.44H1306.61C1306.13 3.44 1305.89 3.66667 1305.89 4.12V16.2ZM1350.48 8.92C1350.48 11.1333 1349.84 12.9867 1348.56 14.48C1347.28 15.9733 1345.24 16.9733 1342.44 17.48L1351.72 28.12C1352.36 28.8667 1353.12 29.44 1354 29.84C1354.88 30.2133 1355.78 30.4 1356.68 30.4V32H1347.2L1337.28 19.84C1336.62 19.04 1336.03 18.5067 1335.52 18.24C1335.04 17.9467 1334.59 17.8 1334.16 17.8V25.64C1334.16 26.6267 1334.23 27.44 1334.36 28.08C1334.5 28.6933 1334.76 29.1733 1335.16 29.52C1335.56 29.8667 1336.14 30.1067 1336.88 30.24C1337.66 30.3467 1338.68 30.4 1339.96 30.4V32H1324.08V30.4C1324.96 30.4 1325.67 30.3467 1326.2 30.24C1326.76 30.1067 1327.19 29.88 1327.48 29.56C1327.8 29.2133 1328.02 28.7467 1328.12 28.16C1328.23 27.5467 1328.28 26.7733 1328.28 25.84V7.36C1328.28 6.42667 1328.24 5.68 1328.16 5.12C1328.08 4.53333 1327.91 4.08 1327.64 3.76C1327.38 3.41333 1326.99 3.18666 1326.48 3.08C1326 2.94666 1325.35 2.85333 1324.52 2.8V1.2H1338.36C1342.23 1.2 1345.22 1.88 1347.32 3.24C1349.43 4.6 1350.48 6.49333 1350.48 8.92ZM1334.16 15.4H1336.76C1339.27 15.4 1341.14 14.92 1342.36 13.96C1343.62 12.9733 1344.24 11.36 1344.24 9.12C1344.24 7.41333 1343.72 6.04 1342.68 5C1341.64 3.96 1340.2 3.44 1338.36 3.44H1334.88C1334.4 3.44 1334.16 3.66667 1334.16 4.12V15.4ZM1373.04 0.799999C1375.44 0.799999 1377.68 1.21333 1379.76 2.04C1381.84 2.86667 1383.64 4 1385.16 5.44C1386.7 6.88 1387.92 8.57333 1388.8 10.52C1389.68 12.4667 1390.12 14.5733 1390.12 16.84C1390.12 19 1389.66 21.0267 1388.76 22.92C1387.88 24.8133 1386.66 26.4667 1385.12 27.88C1383.6 29.2667 1381.8 30.3733 1379.72 31.2C1377.64 32 1375.41 32.4 1373.04 32.4C1370.66 32.4 1368.44 32 1366.36 31.2C1364.28 30.3733 1362.46 29.2667 1360.92 27.88C1359.37 26.4667 1358.16 24.8133 1357.28 22.92C1356.4 21.0267 1355.96 19 1355.96 16.84C1355.96 14.5733 1356.4 12.4667 1357.28 10.52C1358.16 8.57333 1359.36 6.88 1360.88 5.44C1362.42 4 1364.24 2.86667 1366.32 2.04C1368.4 1.21333 1370.64 0.799999 1373.04 0.799999ZM1373.04 29.8C1374.58 29.8 1375.98 29.5067 1377.24 28.92C1378.49 28.3067 1379.56 27.4533 1380.44 26.36C1381.32 25.24 1381.98 23.8933 1382.44 22.32C1382.92 20.72 1383.16 18.9333 1383.16 16.96C1383.16 14.88 1382.92 13.0133 1382.44 11.36C1381.98 9.68 1381.32 8.25333 1380.44 7.08C1379.56 5.88 1378.49 4.97333 1377.24 4.36C1375.98 3.72 1374.58 3.4 1373.04 3.4C1371.46 3.4 1370.05 3.72 1368.8 4.36C1367.57 4.97333 1366.52 5.88 1365.64 7.08C1364.76 8.25333 1364.08 9.68 1363.6 11.36C1363.14 13.0133 1362.92 14.88 1362.92 16.96C1362.92 18.9333 1363.14 20.72 1363.6 22.32C1364.08 23.8933 1364.76 25.24 1365.64 26.36C1366.52 27.4533 1367.57 28.3067 1368.8 28.92C1370.05 29.5067 1371.46 29.8 1373.04 29.8ZM1392.42 32V30.4C1393.3 30.3733 1394.01 30.3067 1394.54 30.2C1395.1 30.0667 1395.53 29.84 1395.82 29.52C1396.14 29.1733 1396.36 28.72 1396.46 28.16C1396.57 27.5733 1396.62 26.8 1396.62 25.84V7.36C1396.62 6.42667 1396.58 5.68 1396.5 5.12C1396.42 4.53333 1396.25 4.08 1395.98 3.76C1395.72 3.41333 1395.34 3.18666 1394.86 3.08C1394.41 2.94666 1393.81 2.85333 1393.06 2.8V1.2H1408.26C1410.82 1.2 1413.18 1.6 1415.34 2.4C1417.5 3.2 1419.37 4.30667 1420.94 5.72C1422.52 7.13333 1423.74 8.81333 1424.62 10.76C1425.5 12.7067 1425.94 14.8267 1425.94 17.12C1425.94 19.3067 1425.53 21.32 1424.7 23.16C1423.88 24.9733 1422.72 26.5333 1421.22 27.84C1419.76 29.1467 1417.98 30.1733 1415.9 30.92C1413.85 31.64 1411.58 32 1409.1 32H1392.42ZM1403.18 3.64C1402.73 3.64 1402.5 3.86666 1402.5 4.32V25C1402.5 26.5467 1402.98 27.6933 1403.94 28.44C1404.9 29.1867 1406.38 29.56 1408.38 29.56C1411.88 29.56 1414.56 28.5067 1416.42 26.4C1418.32 24.2933 1419.26 21.2267 1419.26 17.2C1419.26 15.0667 1419.01 13.16 1418.5 11.48C1418 9.8 1417.26 8.38667 1416.3 7.24C1415.34 6.06667 1414.17 5.17333 1412.78 4.56C1411.42 3.94666 1409.89 3.64 1408.18 3.64H1403.18ZM1457.31 19.6C1457.31 21.8667 1457.06 23.8133 1456.55 25.44C1456.07 27.04 1455.31 28.36 1454.27 29.4C1453.23 30.44 1451.88 31.2 1450.23 31.68C1448.6 32.16 1446.64 32.4 1444.35 32.4C1440.06 32.4 1436.91 31.5067 1434.91 29.72C1432.94 27.9067 1431.95 25.0267 1431.95 21.08V10.12C1431.95 9.08 1431.94 8.21333 1431.91 7.52C1431.88 6.8 1431.84 6.2 1431.79 5.72C1431.74 5.24 1431.66 4.85333 1431.55 4.56C1431.47 4.24 1431.36 3.97333 1431.23 3.76C1430.99 3.38667 1430.64 3.13333 1430.19 3C1429.74 2.86667 1429.04 2.8 1428.11 2.8V1.2H1442.47V2.8C1441.35 2.8 1440.52 2.86667 1439.99 3C1439.46 3.10667 1439.04 3.33333 1438.75 3.68C1438.56 3.89333 1438.4 4.16 1438.27 4.48C1438.16 4.77333 1438.07 5.17333 1437.99 5.68C1437.94 6.16 1437.9 6.76 1437.87 7.48C1437.84 8.2 1437.83 9.08 1437.83 10.12V20.6C1437.83 23.64 1438.47 25.8933 1439.75 27.36C1441.06 28.8 1443.06 29.52 1445.75 29.52C1451.24 29.52 1453.99 26.4667 1453.99 20.36V11.12C1453.99 10 1453.96 9.04 1453.91 8.24C1453.88 7.44 1453.82 6.76 1453.71 6.2C1453.63 5.64 1453.51 5.17333 1453.35 4.8C1453.22 4.42667 1453.04 4.12 1452.83 3.88C1452.46 3.50667 1451.98 3.24 1451.39 3.08C1450.8 2.89333 1449.99 2.8 1448.95 2.8V1.2H1461.91V2.8C1460.92 2.8 1460.16 2.88 1459.63 3.04C1459.1 3.17333 1458.68 3.42666 1458.39 3.8C1458.18 4.04 1458 4.36 1457.87 4.76C1457.74 5.13333 1457.63 5.61333 1457.55 6.2C1457.47 6.76 1457.4 7.44 1457.35 8.24C1457.32 9.04 1457.31 10 1457.31 11.12V19.6ZM1489.79 1.2H1491.75L1490.95 11.32H1489.35C1488.79 8.86667 1487.7 6.93333 1486.07 5.52C1484.47 4.10666 1482.53 3.4 1480.23 3.4C1478.66 3.4 1477.26 3.72 1476.03 4.36C1474.81 4.97333 1473.77 5.86667 1472.91 7.04C1472.09 8.18667 1471.45 9.6 1470.99 11.28C1470.57 12.9333 1470.35 14.8 1470.35 16.88C1470.35 21.0133 1471.19 24.2 1472.87 26.44C1474.58 28.6533 1477.09 29.76 1480.39 29.76C1483.06 29.76 1485.26 29.04 1486.99 27.6C1488.75 26.16 1490.01 24.0133 1490.75 21.16H1492.51V32H1490.63L1490.07 28.84C1487.14 31.2133 1483.58 32.4 1479.39 32.4C1476.97 32.4 1474.77 32.04 1472.79 31.32C1470.82 30.6 1469.14 29.5867 1467.75 28.28C1466.37 26.9467 1465.29 25.3333 1464.51 23.44C1463.77 21.5467 1463.39 19.44 1463.39 17.12C1463.39 14.6933 1463.79 12.48 1464.59 10.48C1465.39 8.48 1466.51 6.76 1467.95 5.32C1469.42 3.88 1471.15 2.77333 1473.15 2C1475.18 1.2 1477.42 0.799999 1479.87 0.799999C1481.5 0.799999 1483.02 1.02667 1484.43 1.48C1485.85 1.93333 1487.38 2.66667 1489.03 3.68L1489.79 1.2ZM1526.64 10H1524.92C1524.84 8.69333 1524.64 7.61333 1524.32 6.76C1524.03 5.88 1523.6 5.18667 1523.04 4.68C1522.48 4.14667 1521.8 3.78667 1521 3.6C1520.2 3.38666 1519.27 3.28 1518.2 3.28C1517.16 3.28 1516.32 3.30666 1515.68 3.36C1515.07 3.38667 1514.59 3.45333 1514.24 3.56C1513.92 3.64 1513.71 3.76 1513.6 3.92C1513.5 4.08 1513.44 4.28 1513.44 4.52V25.48C1513.44 26.3333 1513.5 27.0667 1513.6 27.68C1513.74 28.2933 1513.99 28.8 1514.36 29.2C1514.74 29.5733 1515.28 29.8667 1516 30.08C1516.72 30.2667 1517.67 30.3733 1518.84 30.4V32H1502.08V30.4C1503.28 30.3733 1504.24 30.2667 1504.96 30.08C1505.68 29.8667 1506.23 29.5733 1506.6 29.2C1507 28.8 1507.26 28.2933 1507.36 27.68C1507.5 27.0667 1507.56 26.3333 1507.56 25.48V4.52C1507.56 4.28 1507.51 4.08 1507.4 3.92C1507.32 3.76 1507.14 3.64 1506.84 3.56C1506.55 3.45333 1506.12 3.38667 1505.56 3.36C1505.03 3.30666 1504.32 3.28 1503.44 3.28C1502.48 3.28 1501.56 3.33333 1500.68 3.44C1499.8 3.52 1499.03 3.78667 1498.36 4.24C1497.7 4.66667 1497.15 5.33333 1496.72 6.24C1496.32 7.12 1496.11 8.37333 1496.08 10H1494.52L1494.92 1.2H1526.24L1526.64 10ZM1528.89 21.8H1530.45C1530.82 24.3333 1531.83 26.3333 1533.49 27.8C1535.14 29.24 1537.18 29.96 1539.61 29.96C1540.59 29.96 1541.5 29.84 1542.33 29.6C1543.15 29.36 1543.86 29.0267 1544.45 28.6C1545.03 28.1467 1545.49 27.6267 1545.81 27.04C1546.13 26.4267 1546.29 25.7467 1546.29 25C1546.29 24.36 1546.18 23.8133 1545.97 23.36C1545.78 22.88 1545.41 22.4267 1544.85 22C1544.29 21.5467 1543.51 21.0933 1542.53 20.64C1541.57 20.1867 1540.31 19.6667 1538.77 19.08C1535.65 17.88 1533.34 16.4933 1531.85 14.92C1530.35 13.32 1529.61 11.44 1529.61 9.28C1529.61 8.02667 1529.85 6.88 1530.33 5.84C1530.81 4.8 1531.47 3.90667 1532.33 3.16C1533.21 2.41333 1534.25 1.84 1535.45 1.44C1536.67 1.01333 1538.02 0.799999 1539.49 0.799999C1540.85 0.799999 1542.13 1.01333 1543.33 1.44C1544.53 1.86667 1545.71 2.50667 1546.89 3.36L1547.61 1.36H1548.57L1549.01 10H1547.45C1546.81 7.81333 1545.81 6.14667 1544.45 5C1543.09 3.82667 1541.51 3.24 1539.73 3.24C1538.07 3.24 1536.73 3.65333 1535.69 4.48C1534.67 5.28 1534.17 6.32 1534.17 7.6C1534.17 8.16 1534.26 8.66667 1534.45 9.12C1534.63 9.54666 1534.98 9.96 1535.49 10.36C1535.99 10.76 1536.69 11.1733 1537.57 11.6C1538.45 12 1539.58 12.4533 1540.97 12.96C1542.83 13.68 1544.42 14.4133 1545.73 15.16C1547.06 15.88 1548.14 16.6667 1548.97 17.52C1549.82 18.3467 1550.45 19.2267 1550.85 20.16C1551.25 21.0933 1551.45 22.12 1551.45 23.24C1551.45 24.6 1551.15 25.84 1550.57 26.96C1549.98 28.08 1549.15 29.04 1548.09 29.84C1547.05 30.64 1545.79 31.2667 1544.33 31.72C1542.89 32.1733 1541.29 32.4 1539.53 32.4C1537.93 32.4 1536.49 32.1867 1535.21 31.76C1533.93 31.3067 1532.61 30.5867 1531.25 29.6L1530.45 32H1529.49L1528.89 21.8Z" fill="black"/>
</svg>
